<svg xmlns="http://www.w3.org/2000/svg" xmlns:xlink="http://www.w3.org/1999/xlink" width="1920" zoomAndPan="magnify" viewBox="0 0 1440 809.999993" height="1080" preserveAspectRatio="xMidYMid meet" version="1.0"><path fill="#14213d" d="M 602.175781 391.25 C 603.226562 389.976562 604.445312 388.757812 605.992188 388.179688 C 619.089844 389.640625 632.195312 390.886719 645.34375 391.78125 C 643.128906 389.6875 643.398438 385.839844 643.847656 382.828125 C 644.351562 379.398438 645.121094 375.953125 646.707031 372.863281 C 648.289062 369.773438 650.316406 365.730469 653.789062 365.785156 C 658.480469 365.863281 662.945312 366.417969 667.566406 367.246094 C 667.28125 365.269531 667.6875 363.238281 668.417969 361.382812 C 669.148438 359.523438 670.199219 357.808594 671.253906 356.113281 C 671.675781 355.4375 672.109375 354.75 672.703125 354.210938 C 673.292969 353.679688 674.082031 353.308594 674.875 353.386719 C 675.445312 353.445312 676.015625 353.5 676.582031 353.554688 C 691.898438 355.011719 707.460938 348.875 722.8125 356.125 C 723.71875 356.167969 724.621094 356.21875 725.523438 356.269531 C 726.847656 356.210938 727.523438 356.710938 728.726562 357.257812 C 735.445312 360.296875 741.808594 364.375 749.019531 365.921875 C 751.527344 366.457031 754.703125 367.105469 757.246094 367.4375 C 758.183594 365.503906 760.53125 364.453125 762.601562 363.875 C 764.671875 363.300781 766.855469 363.324219 769.003906 363.382812 C 776.863281 363.597656 784.710938 364.175781 792.550781 364.746094 C 803.355469 365.539062 817.125 366.046875 825.339844 367.25 C 830.671875 368.035156 843.933594 368.4375 844.679688 393.390625 C 845.421875 418.339844 835.890625 431.929688 825.347656 435.714844 C 814.808594 439.503906 796.8125 434.425781 796.8125 434.425781 C 796.8125 434.425781 790.582031 456.453125 778.175781 459.675781 C 770 461.800781 744.957031 457.472656 739.789062 456.761719 C 726.453125 454.925781 721.210938 453.695312 712.617188 452.359375 C 711.054688 452.117188 709.074219 451.917969 707.503906 451.691406 C 704.695312 451.28125 701.921875 449.679688 700.742188 447.089844 C 700.066406 448.15625 698.390625 448.359375 697.128906 448.277344 C 695.871094 448.191406 694.648438 447.785156 693.386719 447.738281 C 678.386719 444.644531 654.355469 438.792969 652.753906 438.507812 C 651.152344 438.230469 649.890625 434.714844 649.890625 434.714844 C 649.890625 434.714844 643.492188 433.507812 642.4375 431.773438 C 641.382812 430.042969 641.25 428.769531 641.25 428.769531 C 634.058594 428.769531 626.28125 426.03125 619.207031 424.753906 C 612.984375 423.628906 606.734375 422.5 600.691406 420.617188 C 598.796875 420.03125 597.46875 418.265625 596.929688 416.355469 C 594.496094 407.804688 596.523438 398.113281 602.175781 391.25 Z M 602.175781 391.25 " fill-opacity="1" fill-rule="nonzero"/><path fill="#e5e5e5" d="M 762.445312 427.679688 C 763.3125 409.632812 768.933594 396.699219 778.1875 396.933594 C 781.171875 397.953125 787.902344 409.1875 787.109375 423.386719 C 786.3125 437.582031 779.914062 452.117188 773.925781 452.917969 C 767.945312 453.714844 761.582031 445.726562 762.445312 427.679688 Z M 780.839844 439.496094 C 781.84375 438.292969 771.621094 422.367188 771 422.230469 C 768.1875 421.628906 779.832031 440.703125 780.839844 439.496094 Z M 784.855469 430.425781 C 784.339844 426.191406 768.988281 405.164062 768.59375 406.816406 C 768.1875 408.46875 785.046875 432.0625 784.855469 430.425781 Z M 827.769531 374.046875 C 828.898438 375.894531 836.628906 384.332031 835.15625 400.152344 C 833.878906 413.921875 828.773438 427.792969 823.359375 430.054688 C 817.941406 432.3125 809.441406 424.449219 810.496094 403.140625 C 811.550781 381.835938 818.988281 370.085938 827.769531 374.046875 Z M 832.433594 403.5625 C 833.238281 402.355469 816.570312 381.675781 816.371094 382.507812 C 816.171875 383.335938 831.058594 405.625 832.433594 403.5625 Z M 829.171875 412.59375 C 830.523438 410.585938 816.371094 394.121094 816.371094 395.925781 C 816.367188 397.738281 828.316406 413.859375 829.171875 412.59375 Z M 829.171875 412.59375 " fill-opacity="1" fill-rule="nonzero"/><path fill="#e5e5e5" d="M 673.699219 371.773438 C 684.167969 372.785156 708.019531 376.175781 708.019531 376.175781 C 707.75 374.179688 708.347656 372.179688 709.019531 370.285156 C 710.109375 367.195312 711.40625 364.175781 712.890625 361.253906 C 713.917969 359.226562 715.070312 355.960938 717.34375 355.960938 L 722.808594 356.125 C 722.808594 356.125 719.003906 352.101562 717.34375 352.152344 C 715.675781 352.203125 682.464844 347.933594 679.796875 349.058594 C 677.136719 350.1875 669.5625 361.855469 673.699219 371.773438 Z M 813.519531 372.84375 C 814.671875 371.460938 815.820312 370.070312 816.96875 368.6875 C 817.308594 368.28125 817.667969 367.855469 818.160156 367.664062 C 820.511719 366.722656 817.871094 369.734375 817.523438 370.109375 C 816.386719 371.359375 815.296875 372.648438 814.257812 373.976562 C 812.210938 376.589844 810.367188 379.355469 808.769531 382.269531 C 805.625 387.992188 803.460938 394.28125 802.800781 400.792969 C 802.570312 403.136719 802.523438 405.492188 802.484375 407.84375 C 802.40625 412.199219 802.335938 416.636719 803.59375 420.808594 C 805.078125 425.730469 808.320312 429.964844 812.082031 433.460938 C 812.363281 433.722656 812.648438 433.996094 812.753906 434.359375 C 812.859375 434.722656 812.679688 435.195312 812.308594 435.257812 C 811.972656 435.316406 811.683594 435.042969 811.457031 434.789062 C 809.519531 432.664062 807.578125 430.527344 806.015625 428.113281 C 804.9375 426.441406 804.046875 424.648438 803.265625 422.816406 C 802.535156 421.101562 801.886719 419.339844 801.484375 417.519531 C 801.027344 415.464844 800.867188 413.359375 800.792969 411.253906 C 800.390625 400.175781 802.308594 388.683594 808.4375 379.441406 C 809.96875 377.128906 811.75 374.984375 813.519531 372.84375 Z M 835.847656 415.058594 C 839.425781 407.671875 840.203125 399.125 839.015625 391.003906 C 838.574219 388.003906 837.863281 385.015625 836.554688 382.277344 C 835.246094 379.539062 833.296875 377.0625 830.730469 375.441406 C 829.953125 374.949219 832.339844 375.210938 832.839844 375.628906 C 834.863281 377.316406 836.5 379.089844 837.675781 381.488281 C 839.109375 384.414062 839.773438 387.660156 840.136719 390.902344 C 841.453125 402.496094 838.878906 414.722656 831.921875 424.09375 C 831.203125 425.066406 830.34375 426.0625 829.167969 426.355469 C 830.28125 424.542969 831.394531 422.730469 832.503906 420.917969 C 833.6875 419 834.867188 417.085938 835.847656 415.058594 Z M 789.328125 409.714844 C 788.125 405.84375 786.238281 401.96875 782.90625 399.660156 C 782.210938 399.175781 781.449219 398.757812 780.933594 398.085938 C 780.808594 397.921875 780.695312 397.71875 780.757812 397.523438 C 781.058594 396.652344 785.835938 401.082031 786.273438 401.589844 C 788.054688 403.644531 789.402344 406.070312 790.328125 408.617188 C 791.820312 412.742188 792.269531 417.175781 792.277344 421.558594 C 792.296875 430.597656 790.433594 439.785156 785.785156 447.535156 C 784.355469 449.914062 782.566406 452.238281 780.03125 453.375 C 780.300781 451.894531 781.316406 450.675781 782.230469 449.480469 C 790.753906 438.382812 793.488281 423.078125 789.328125 409.714844 Z M 758.027344 410.070312 C 759.863281 405.800781 761.945312 401.574219 764.914062 398.003906 C 767.886719 394.429688 772.492188 392.011719 776.996094 390.855469 C 780.34375 389.996094 784.050781 390.628906 786.929688 392.546875 C 789.433594 394.214844 791.242188 396.75 792.644531 399.40625 C 797.972656 409.503906 797.910156 421.554688 796.601562 432.894531 C 796.355469 435.234375 795.277344 436.308594 795.210938 432.652344 C 795.140625 428.992188 795.628906 426.648438 795.628906 417.984375 C 795.628906 409.324219 791.164062 390.375 778.175781 391.90625 C 765.1875 393.4375 757.257812 410.976562 755.996094 428.328125 C 754.742188 445.671875 759.902344 453.023438 762.445312 455.710938 C 764.988281 458.390625 766.347656 459.515625 764.488281 459.132812 C 759.242188 455.605469 756.6875 449.214844 755.453125 443.015625 C 753.890625 435.160156 754.554688 427.113281 755.3125 419.136719 C 755.609375 415.980469 756.773438 412.976562 758.027344 410.070312 Z M 701.140625 387.148438 C 705.035156 380.878906 719.988281 359.242188 721 358.144531 C 722.011719 357.042969 723.636719 356.300781 722.8125 357.675781 C 722.449219 358.277344 700.429688 388.613281 695.019531 400.15625 C 689.609375 411.703125 684.320312 435.214844 695.019531 446.316406 C 695.566406 448.050781 692.929688 445.515625 691.523438 443.414062 C 690.113281 441.3125 685.515625 434.214844 687.617188 419.410156 C 689.714844 404.601562 697.25 393.414062 701.140625 387.148438 Z M 699.289062 396.390625 C 701.667969 390.941406 704.742188 388.875 704.105469 390.476562 C 704.035156 390.664062 703.859375 390.996094 703.609375 391.457031 C 704.859375 391.121094 706.914062 390.519531 708.25 390.703125 C 710.800781 388.238281 713.238281 387.4375 714.226562 387.179688 C 714.5625 387.09375 717.765625 387.167969 722.527344 387.339844 C 723.910156 385.050781 725.402344 382.527344 726.742188 380.335938 C 726.671875 380.265625 726.625 380.210938 726.617188 380.179688 C 726.460938 379.511719 738.769531 386.125 738.222656 386.484375 C 737.746094 386.796875 729.394531 382.273438 727.164062 380.671875 C 725.980469 382.90625 724.796875 385.144531 723.613281 387.378906 C 725.628906 387.453125 727.882812 387.542969 730.289062 387.640625 C 729.1875 386.933594 728.097656 386.078125 726.8125 385.25 C 726.652344 385.144531 726.578125 384.859375 726.738281 384.761719 C 726.816406 384.710938 726.921875 384.734375 727.011719 384.765625 C 727.558594 384.953125 728.046875 385.289062 728.535156 385.605469 C 729.722656 386.378906 730.957031 387.085938 732.226562 387.722656 C 749.492188 388.453125 773.054688 389.648438 773.917969 389.871094 C 775.265625 390.21875 776.136719 390.503906 774.292969 390.910156 C 772.378906 391.335938 720.441406 389.269531 715.46875 388.746094 C 710.492188 388.222656 692.933594 403.824219 699.863281 445.328125 C 701.4375 448.257812 698.085938 446.84375 697.523438 439.511719 C 696.957031 432.183594 694.167969 415.5625 704.652344 395.539062 C 705.484375 394 706.378906 392.746094 707.285156 391.71875 C 706.007812 392.011719 704.386719 391.890625 703.375 391.902344 C 701.15625 395.992188 694.800781 407.535156 693.023438 421.289062 C 690.941406 437.414062 696.308594 443.433594 696.613281 443.851562 C 696.804688 446.722656 694.617188 444.683594 691.679688 435.386719 C 688.375 421.214844 696.910156 401.832031 699.289062 396.390625 Z M 663.171875 376.183594 C 664.441406 373.621094 665.929688 368.414062 666.824219 367.117188 C 667.074219 367.160156 667.257812 367.191406 667.566406 367.246094 C 667.425781 371.859375 664.167969 376.878906 658.222656 385.632812 C 652.273438 394.382812 639.421875 410.40625 649.179688 432.894531 C 650.101562 435.238281 647.828125 433.972656 646.222656 428.5 C 644.621094 423.027344 642.597656 414.347656 647.378906 401.261719 C 649.902344 394.484375 661.507812 379.546875 663.171875 376.183594 Z M 651.972656 392.21875 C 651.972656 392.21875 645.800781 392.273438 645.347656 391.78125 C 644.894531 391.285156 653.46875 391.601562 651.972656 392.21875 Z M 726.671875 378.164062 C 721.511719 380.820312 716.875 372.011719 719.25 364.839844 C 720.167969 361.980469 721.019531 363.175781 720.105469 366.816406 C 719.1875 370.460938 721.710938 377.402344 724.710938 377.402344 C 730.140625 377.402344 733.382812 364.070312 729.589844 359.660156 C 728.734375 358.070312 730.175781 357.886719 731.046875 359.660156 C 732.421875 362.46875 733.789062 373.667969 726.671875 378.164062 Z M 640.09375 411.570312 C 640.984375 406.0625 642.105469 405.335938 641.816406 406.816406 C 641.527344 408.292969 638.480469 417.808594 641.25 428.769531 L 640.09375 428.746094 C 640.09375 428.746094 638.1875 423.390625 640.09375 411.570312 Z M 755.589844 367.445312 L 757.25 367.445312 C 748.574219 377.53125 748.90625 383.765625 747.902344 384.769531 C 746.902344 385.769531 747.34375 377.183594 755.589844 367.445312 Z M 741.347656 380.566406 C 741.171875 381.015625 740.761719 381.542969 740.332031 381.328125 C 740.058594 380.472656 740.222656 379.539062 740.457031 378.675781 C 740.980469 376.734375 741.824219 374.878906 742.691406 373.066406 C 742.976562 372.464844 744.484375 368.953125 744.742188 371.085938 C 744.886719 372.25 743.3125 374.304688 742.929688 375.480469 C 742.378906 377.167969 741.996094 378.910156 741.347656 380.566406 Z M 741.347656 380.566406 " fill-opacity="1" fill-rule="nonzero"/></svg>