<svg width="48" height="48" viewBox="0 0 48 48" fill="none" xmlns="http://www.w3.org/2000/svg">
<path d="M36 40H37C38.172 38.828 38.828 38.172 40 37V32H36V40Z" fill="#FFC2D1"/>
<path d="M36 16H37C38.172 14.828 38.828 14.172 40 13V8H36V16Z" fill="#FFC2D1"/>
<path d="M36 28H37C38.172 26.828 38.828 26.172 40 25V20H36V28Z" fill="#FFC2D1"/>
<path d="M37 5H8V43H37V5Z" fill="#D11B47"/>
<path d="M37 8H35.083V16H37V8Z" fill="#AE163C"/>
<path d="M37 20H35.083V28H37V20Z" fill="#AE163C"/>
<path d="M37 32H35.083V40H37V32Z" fill="#AE163C"/>
<path d="M26.133 24.003L17.866 23.997C17.314 23.997 16.867 23.549 16.867 22.996C16.867 22.444 17.315 21.997 17.867 21.997L26.134 22.003C26.686 22.003 27.133 22.451 27.133 23.004C27.133 23.556 26.685 24.003 26.133 24.003Z" fill="#E5E5E5"/>
<path d="M25.023 26H18.978C16.842 26 15.024 27.613 14.687 29.804C16.512 31.766 19.109 33 22 33C24.891 33 27.488 31.766 29.314 29.804C28.976 27.613 27.158 26 25.023 26Z" fill="#B0B0B0"/>
<path d="M22 26.899C19.761 26.899 17.876 25.226 17.609 23.003L17.392 21.194C17.06 18.431 19.217 16 22 16C24.783 16 26.94 18.431 26.608 21.194L26.391 23.003C26.124 25.226 24.239 26.899 22 26.899Z" fill="#E5E5E5"/>
</svg>
