<svg xmlns="http://www.w3.org/2000/svg" xmlns:xlink="http://www.w3.org/1999/xlink" width="40" zoomAndPan="magnify" viewBox="0 0 30 30.000001" height="40" preserveAspectRatio="xMidYMid meet" version="1.0"><defs><clipPath id="110675fd2c"><path d="M 0.484375 8 L 29.515625 8 L 29.515625 20.980469 L 0.484375 20.980469 Z M 0.484375 8 " clip-rule="nonzero"/></clipPath><clipPath id="90b282ad98"><path d="M 19 10 L 29 10 L 29 20.980469 L 19 20.980469 Z M 19 10 " clip-rule="nonzero"/></clipPath><clipPath id="5e7db5ab72"><path d="M 5 8 L 29 8 L 29 20.980469 L 5 20.980469 Z M 5 8 " clip-rule="nonzero"/></clipPath></defs><g clip-path="url(#110675fd2c)"><path fill="#14213d" d="M 1.375 12.9375 C 1.496094 12.792969 1.636719 12.648438 1.816406 12.582031 C 3.332031 12.753906 4.847656 12.898438 6.371094 13 C 6.113281 12.757812 6.144531 12.3125 6.195312 11.964844 C 6.253906 11.566406 6.34375 11.167969 6.527344 10.8125 C 6.710938 10.453125 6.945312 9.988281 7.347656 9.992188 C 7.890625 10 8.40625 10.066406 8.941406 10.160156 C 8.90625 9.933594 8.953125 9.699219 9.039062 9.484375 C 9.125 9.269531 9.246094 9.070312 9.367188 8.875 C 9.414062 8.796875 9.464844 8.714844 9.535156 8.652344 C 9.601562 8.59375 9.695312 8.550781 9.785156 8.558594 C 9.851562 8.566406 9.917969 8.570312 9.984375 8.578125 C 11.753906 8.746094 13.554688 8.035156 15.332031 8.875 C 15.4375 8.878906 15.542969 8.886719 15.644531 8.890625 C 15.796875 8.886719 15.875 8.941406 16.015625 9.007812 C 16.792969 9.359375 17.53125 9.828125 18.363281 10.007812 C 18.652344 10.070312 19.019531 10.144531 19.316406 10.183594 C 19.421875 9.960938 19.695312 9.839844 19.933594 9.773438 C 20.175781 9.703125 20.425781 9.707031 20.675781 9.714844 C 21.585938 9.738281 22.492188 9.804688 23.398438 9.871094 C 24.648438 9.964844 26.242188 10.023438 27.191406 10.160156 C 27.808594 10.253906 29.34375 10.300781 29.429688 13.1875 C 29.515625 16.074219 28.414062 17.644531 27.195312 18.082031 C 25.976562 18.519531 23.894531 17.933594 23.894531 17.933594 C 23.894531 17.933594 23.171875 20.480469 21.738281 20.855469 C 20.789062 21.101562 17.894531 20.601562 17.296875 20.519531 C 15.753906 20.304688 15.144531 20.164062 14.152344 20.007812 C 13.972656 19.980469 13.742188 19.957031 13.5625 19.929688 C 13.234375 19.882812 12.914062 19.699219 12.777344 19.398438 C 12.699219 19.523438 12.507812 19.546875 12.359375 19.535156 C 12.214844 19.527344 12.074219 19.480469 11.925781 19.472656 C 10.191406 19.117188 7.410156 18.4375 7.226562 18.40625 C 7.042969 18.375 6.894531 17.96875 6.894531 17.96875 C 6.894531 17.96875 6.15625 17.828125 6.03125 17.628906 C 5.910156 17.425781 5.894531 17.28125 5.894531 17.28125 C 5.0625 17.28125 4.164062 16.960938 3.34375 16.816406 C 2.625 16.683594 1.902344 16.554688 1.203125 16.335938 C 0.984375 16.269531 0.832031 16.0625 0.769531 15.84375 C 0.488281 14.855469 0.722656 13.734375 1.375 12.9375 Z M 1.375 12.9375 " fill-opacity="1" fill-rule="nonzero"/></g><g clip-path="url(#90b282ad98)"><path fill="#e5e5e5" d="M 19.917969 17.152344 C 20.015625 15.066406 20.667969 13.570312 21.738281 13.597656 C 22.082031 13.714844 22.863281 15.015625 22.769531 16.65625 C 22.679688 18.300781 21.9375 19.980469 21.246094 20.074219 C 20.554688 20.164062 19.816406 19.242188 19.917969 17.152344 Z M 22.042969 18.519531 C 22.160156 18.382812 20.980469 16.539062 20.90625 16.523438 C 20.582031 16.453125 21.929688 18.660156 22.042969 18.519531 Z M 22.507812 17.472656 C 22.449219 16.980469 20.675781 14.546875 20.628906 14.738281 C 20.582031 14.929688 22.53125 17.660156 22.507812 17.472656 Z M 27.472656 10.949219 C 27.605469 11.160156 28.5 12.136719 28.328125 13.96875 C 28.179688 15.5625 27.589844 17.167969 26.964844 17.429688 C 26.335938 17.6875 25.355469 16.78125 25.476562 14.316406 C 25.597656 11.847656 26.457031 10.488281 27.472656 10.949219 Z M 28.015625 14.363281 C 28.105469 14.222656 26.179688 11.832031 26.15625 11.925781 C 26.132812 12.023438 27.855469 14.601562 28.015625 14.363281 Z M 27.636719 15.40625 C 27.792969 15.175781 26.15625 13.269531 26.15625 13.480469 C 26.15625 13.6875 27.539062 15.554688 27.636719 15.40625 Z M 27.636719 15.40625 " fill-opacity="1" fill-rule="nonzero"/></g><g clip-path="url(#5e7db5ab72)"><path fill="#e5e5e5" d="M 9.648438 10.683594 C 10.859375 10.800781 13.621094 11.195312 13.621094 11.195312 C 13.589844 10.964844 13.65625 10.734375 13.734375 10.511719 C 13.863281 10.15625 14.011719 9.804688 14.183594 9.46875 C 14.304688 9.234375 14.4375 8.855469 14.699219 8.855469 L 15.332031 8.875 C 15.332031 8.875 14.890625 8.410156 14.699219 8.414062 C 14.507812 8.421875 10.664062 7.925781 10.355469 8.058594 C 10.046875 8.1875 9.171875 9.539062 9.648438 10.683594 Z M 25.824219 10.808594 C 25.957031 10.648438 26.09375 10.488281 26.226562 10.328125 C 26.265625 10.28125 26.304688 10.230469 26.363281 10.210938 C 26.636719 10.101562 26.328125 10.449219 26.289062 10.492188 C 26.15625 10.636719 26.03125 10.785156 25.910156 10.941406 C 25.675781 11.242188 25.460938 11.5625 25.277344 11.898438 C 24.914062 12.5625 24.660156 13.289062 24.585938 14.042969 C 24.558594 14.3125 24.554688 14.585938 24.550781 14.859375 C 24.539062 15.363281 24.53125 15.875 24.675781 16.359375 C 24.847656 16.925781 25.222656 17.417969 25.660156 17.820312 C 25.691406 17.851562 25.726562 17.882812 25.738281 17.925781 C 25.75 17.96875 25.730469 18.023438 25.683594 18.03125 C 25.648438 18.035156 25.613281 18.003906 25.585938 17.976562 C 25.363281 17.730469 25.136719 17.484375 24.957031 17.203125 C 24.832031 17.011719 24.730469 16.800781 24.640625 16.589844 C 24.554688 16.390625 24.480469 16.1875 24.433594 15.976562 C 24.378906 15.738281 24.363281 15.496094 24.351562 15.253906 C 24.308594 13.972656 24.527344 12.640625 25.238281 11.574219 C 25.414062 11.304688 25.621094 11.054688 25.824219 10.808594 Z M 28.410156 15.691406 C 28.824219 14.839844 28.914062 13.851562 28.773438 12.910156 C 28.722656 12.5625 28.640625 12.21875 28.492188 11.902344 C 28.339844 11.582031 28.113281 11.296875 27.816406 11.109375 C 27.726562 11.050781 28.003906 11.082031 28.0625 11.132812 C 28.296875 11.328125 28.484375 11.53125 28.621094 11.808594 C 28.785156 12.148438 28.863281 12.523438 28.90625 12.898438 C 29.058594 14.238281 28.757812 15.652344 27.953125 16.738281 C 27.871094 16.851562 27.773438 16.964844 27.636719 17 C 27.765625 16.789062 27.894531 16.582031 28.023438 16.371094 C 28.160156 16.148438 28.296875 15.925781 28.410156 15.691406 Z M 23.027344 15.074219 C 22.886719 14.628906 22.667969 14.179688 22.285156 13.910156 C 22.203125 13.855469 22.117188 13.808594 22.054688 13.730469 C 22.042969 13.710938 22.027344 13.6875 22.035156 13.664062 C 22.070312 13.5625 22.621094 14.074219 22.671875 14.136719 C 22.878906 14.371094 23.035156 14.652344 23.144531 14.949219 C 23.316406 15.425781 23.367188 15.9375 23.367188 16.445312 C 23.371094 17.492188 23.15625 18.554688 22.617188 19.449219 C 22.453125 19.726562 22.246094 19.996094 21.953125 20.125 C 21.984375 19.953125 22.101562 19.8125 22.207031 19.675781 C 23.191406 18.390625 23.507812 16.621094 23.027344 15.074219 Z M 19.40625 15.117188 C 19.617188 14.621094 19.859375 14.132812 20.203125 13.71875 C 20.546875 13.304688 21.078125 13.027344 21.601562 12.894531 C 21.988281 12.792969 22.417969 12.867188 22.75 13.089844 C 23.039062 13.28125 23.25 13.574219 23.410156 13.882812 C 24.027344 15.050781 24.019531 16.445312 23.867188 17.757812 C 23.839844 18.027344 23.714844 18.152344 23.707031 17.726562 C 23.699219 17.304688 23.753906 17.035156 23.753906 16.03125 C 23.753906 15.03125 23.238281 12.835938 21.738281 13.015625 C 20.234375 13.191406 19.316406 15.21875 19.171875 17.226562 C 19.027344 19.234375 19.621094 20.085938 19.917969 20.394531 C 20.210938 20.707031 20.367188 20.835938 20.152344 20.792969 C 19.546875 20.382812 19.25 19.644531 19.109375 18.925781 C 18.925781 18.019531 19.003906 17.085938 19.089844 16.164062 C 19.125 15.800781 19.261719 15.453125 19.40625 15.117188 Z M 12.824219 12.464844 C 13.273438 11.738281 15.003906 9.234375 15.121094 9.109375 C 15.238281 8.980469 15.425781 8.894531 15.332031 9.054688 C 15.289062 9.125 12.742188 12.632812 12.117188 13.96875 C 11.492188 15.304688 10.878906 18.023438 12.117188 19.308594 C 12.179688 19.511719 11.875 19.214844 11.710938 18.972656 C 11.546875 18.730469 11.015625 17.910156 11.257812 16.195312 C 11.503906 14.484375 12.375 13.1875 12.824219 12.464844 Z M 12.609375 13.535156 C 12.886719 12.902344 13.242188 12.664062 13.167969 12.847656 C 13.160156 12.871094 13.140625 12.910156 13.109375 12.960938 C 13.253906 12.921875 13.492188 12.855469 13.648438 12.875 C 13.941406 12.589844 14.222656 12.496094 14.339844 12.46875 C 14.378906 12.457031 14.746094 12.464844 15.296875 12.484375 C 15.457031 12.222656 15.632812 11.929688 15.785156 11.675781 C 15.777344 11.667969 15.773438 11.660156 15.773438 11.65625 C 15.753906 11.582031 17.179688 12.34375 17.113281 12.386719 C 17.058594 12.421875 16.09375 11.898438 15.835938 11.714844 C 15.699219 11.972656 15.5625 12.230469 15.425781 12.492188 C 15.65625 12.5 15.917969 12.507812 16.195312 12.519531 C 16.070312 12.4375 15.941406 12.339844 15.792969 12.246094 C 15.777344 12.230469 15.765625 12.199219 15.785156 12.1875 C 15.796875 12.183594 15.808594 12.183594 15.816406 12.1875 C 15.878906 12.210938 15.9375 12.25 15.992188 12.285156 C 16.132812 12.375 16.273438 12.457031 16.421875 12.53125 C 18.417969 12.613281 21.144531 12.753906 21.242188 12.777344 C 21.398438 12.820312 21.5 12.851562 21.289062 12.898438 C 21.066406 12.949219 15.058594 12.710938 14.480469 12.648438 C 13.90625 12.589844 11.875 14.394531 12.675781 19.195312 C 12.859375 19.535156 12.472656 19.371094 12.40625 18.523438 C 12.339844 17.675781 12.019531 15.75 13.230469 13.433594 C 13.328125 13.257812 13.429688 13.113281 13.535156 12.992188 C 13.386719 13.027344 13.199219 13.011719 13.082031 13.015625 C 12.828125 13.488281 12.089844 14.824219 11.886719 16.414062 C 11.644531 18.277344 12.265625 18.976562 12.300781 19.023438 C 12.324219 19.355469 12.070312 19.121094 11.730469 18.046875 C 11.347656 16.40625 12.335938 14.164062 12.609375 13.535156 Z M 8.433594 11.195312 C 8.578125 10.898438 8.75 10.296875 8.855469 10.144531 C 8.882812 10.152344 8.90625 10.15625 8.941406 10.160156 C 8.925781 10.695312 8.546875 11.277344 7.859375 12.289062 C 7.171875 13.300781 5.683594 15.15625 6.8125 17.757812 C 6.917969 18.027344 6.65625 17.882812 6.472656 17.25 C 6.285156 16.613281 6.050781 15.609375 6.605469 14.097656 C 6.898438 13.3125 8.238281 11.585938 8.433594 11.195312 Z M 7.136719 13.050781 C 7.136719 13.050781 6.421875 13.058594 6.371094 13 C 6.316406 12.941406 7.308594 12.980469 7.136719 13.050781 Z M 15.777344 11.425781 C 15.179688 11.730469 14.644531 10.714844 14.917969 9.882812 C 15.027344 9.550781 15.125 9.691406 15.019531 10.113281 C 14.914062 10.535156 15.203125 11.335938 15.550781 11.335938 C 16.179688 11.335938 16.554688 9.792969 16.117188 9.285156 C 16.015625 9.101562 16.183594 9.078125 16.285156 9.285156 C 16.441406 9.609375 16.601562 10.90625 15.777344 11.425781 Z M 5.761719 15.289062 C 5.863281 14.652344 5.996094 14.570312 5.960938 14.738281 C 5.925781 14.910156 5.574219 16.011719 5.894531 17.28125 L 5.761719 17.277344 C 5.761719 17.277344 5.542969 16.65625 5.761719 15.289062 Z M 19.125 10.183594 L 19.316406 10.183594 C 18.3125 11.351562 18.351562 12.074219 18.234375 12.1875 C 18.117188 12.304688 18.167969 11.3125 19.125 10.183594 Z M 17.476562 11.703125 C 17.457031 11.753906 17.40625 11.816406 17.359375 11.789062 C 17.328125 11.691406 17.347656 11.582031 17.371094 11.484375 C 17.433594 11.257812 17.53125 11.042969 17.632812 10.835938 C 17.664062 10.765625 17.839844 10.359375 17.867188 10.605469 C 17.886719 10.742188 17.703125 10.976562 17.660156 11.113281 C 17.59375 11.308594 17.550781 11.511719 17.476562 11.703125 Z M 17.476562 11.703125 " fill-opacity="1" fill-rule="nonzero"/></g></svg>